<svg xmlns="http://www.w3.org/2000/svg" width="13.835" height="13.835" viewBox="0 0 13.835 13.835" fill="none">
  <path d="M 6.917 13.835 C 10.701 13.835 13.835 10.708 13.835 6.917 C 13.835 3.134 10.701 0 6.911 0 C 3.127 0 0 3.134 0 6.917 C 0 10.708 3.134 13.835 6.917 13.835 Z M 2.886 2.705 C 3.556 2.069 4.366 1.58 5.27 1.312 C 4.795 1.788 4.393 2.458 4.092 3.275 C 3.623 3.127 3.221 2.933 2.886 2.705 Z M 8.571 1.319 C 9.469 1.587 10.279 2.069 10.942 2.705 C 10.614 2.94 10.212 3.127 9.743 3.281 C 9.442 2.458 9.04 1.788 8.571 1.319 Z M 7.386 1.533 C 7.942 1.801 8.451 2.525 8.813 3.509 C 8.371 3.589 7.895 3.636 7.386 3.656 L 7.386 1.533 Z M 5.022 3.509 C 5.391 2.525 5.893 1.801 6.449 1.533 L 6.449 3.656 C 5.94 3.636 5.464 3.589 5.022 3.509 Z M 1.092 6.449 C 1.185 5.31 1.614 4.259 2.27 3.395 C 2.679 3.696 3.208 3.958 3.824 4.152 C 3.65 4.848 3.536 5.625 3.502 6.449 L 1.092 6.449 Z M 10.333 6.449 C 10.299 5.625 10.185 4.848 10.011 4.152 C 10.627 3.958 11.156 3.703 11.558 3.395 C 12.221 4.259 12.65 5.31 12.743 6.449 L 10.333 6.449 Z M 4.46 6.449 C 4.493 5.719 4.594 5.022 4.748 4.393 C 5.283 4.5 5.853 4.567 6.449 4.594 L 6.449 6.449 L 4.46 6.449 Z M 7.386 6.449 L 7.386 4.594 C 7.982 4.567 8.551 4.5 9.087 4.393 C 9.241 5.022 9.342 5.719 9.375 6.449 L 7.386 6.449 Z M 1.092 7.386 L 3.502 7.386 C 3.536 8.223 3.65 9.007 3.824 9.71 C 3.214 9.904 2.692 10.158 2.29 10.46 C 1.621 9.589 1.185 8.531 1.092 7.386 Z M 4.46 7.386 L 6.449 7.386 L 6.449 9.275 C 5.859 9.301 5.283 9.368 4.754 9.469 C 4.594 8.833 4.487 8.123 4.46 7.386 Z M 7.386 9.275 L 7.386 7.386 L 9.375 7.386 C 9.348 8.123 9.241 8.833 9.08 9.469 C 8.551 9.368 7.982 9.301 7.386 9.275 Z M 10.011 9.71 C 10.192 9.007 10.299 8.223 10.333 7.386 L 12.743 7.386 C 12.65 8.531 12.214 9.589 11.545 10.46 C 11.143 10.158 10.621 9.904 10.011 9.71 Z M 7.386 10.212 C 7.888 10.232 8.364 10.279 8.799 10.359 C 8.437 11.324 7.935 12.04 7.386 12.301 L 7.386 10.212 Z M 5.036 10.359 C 5.471 10.279 5.946 10.232 6.449 10.212 L 6.449 12.301 C 5.9 12.04 5.397 11.324 5.036 10.359 Z M 2.906 11.15 C 3.234 10.922 3.636 10.734 4.098 10.587 C 4.4 11.391 4.795 12.047 5.257 12.516 C 4.373 12.248 3.569 11.772 2.906 11.15 Z M 9.737 10.587 C 10.199 10.734 10.601 10.922 10.929 11.15 C 10.266 11.772 9.462 12.248 8.578 12.516 C 9.04 12.047 9.435 11.391 9.737 10.587 Z" fill="currentColor" fill-rule="nonzero"></path>
</svg>