<svg xmlns="http://www.w3.org/2000/svg" width="28.571" height="29.784" viewBox="0 0 28.571 29.784" fill="none">
  <path d="M 4.927 5.222 C 5.853 5.974 6.201 5.917 7.94 5.801 L 24.34 4.816 C 24.688 4.816 24.399 4.469 24.283 4.411 L 21.559 2.443 C 21.037 2.037 20.342 1.573 19.009 1.689 L 3.129 2.848 C 2.55 2.905 2.435 3.195 2.665 3.427 L 4.927 5.222 Z M 5.911 9.044 L 5.911 26.299 C 5.911 27.226 6.375 27.573 7.418 27.516 L 25.441 26.473 C 26.485 26.416 26.601 25.778 26.601 25.025 L 26.601 7.885 C 26.601 7.133 26.312 6.727 25.673 6.785 L 6.838 7.885 C 6.143 7.943 5.911 8.291 5.911 9.044 Z M 23.704 9.969 C 23.82 10.491 23.704 11.012 23.181 11.071 L 22.313 11.244 L 22.313 23.983 C 21.559 24.388 20.864 24.62 20.284 24.62 C 19.357 24.62 19.124 24.33 18.43 23.462 L 12.749 14.545 L 12.749 23.172 L 14.547 23.578 C 14.547 23.578 14.547 24.62 13.097 24.62 L 9.099 24.852 C 8.983 24.62 9.099 24.041 9.504 23.925 L 10.548 23.636 L 10.548 12.229 L 9.099 12.113 C 8.983 11.591 9.272 10.839 10.084 10.78 L 14.373 10.491 L 20.284 19.525 L 20.284 11.533 L 18.777 11.36 C 18.661 10.723 19.124 10.26 19.704 10.202 L 23.704 9.969 Z M 1.796 1.284 L 18.314 0.068 C 20.342 -0.106 20.864 0.01 22.139 0.937 L 27.411 4.642 C 28.281 5.28 28.571 5.453 28.571 6.148 L 28.571 26.473 C 28.571 27.747 28.107 28.5 26.485 28.615 L 7.303 29.774 C 6.085 29.832 5.506 29.658 4.868 28.847 L 0.985 23.809 C 0.289 22.882 0 22.188 0 21.377 L 0 3.31 C 0 2.269 0.464 1.4 1.796 1.284 Z" fill="currentColor" fill-rule="nonzero"></path>
</svg>