<svg xmlns="http://www.w3.org/2000/svg" width="12.843" height="15.248" viewBox="0 0 12.843 15.248" fill="none">
  <path d="M 12.574 11.882 C 12.344 12.415 12.071 12.906 11.754 13.356 C 11.323 13.971 10.97 14.396 10.698 14.633 C 10.277 15.02 9.825 15.219 9.341 15.23 C 8.994 15.23 8.575 15.131 8.088 14.931 C 7.598 14.731 7.149 14.633 6.738 14.633 C 6.307 14.633 5.845 14.731 5.35 14.931 C 4.855 15.131 4.456 15.236 4.151 15.246 C 3.687 15.266 3.224 15.062 2.763 14.633 C 2.468 14.376 2.1 13.935 1.658 13.311 C 1.185 12.645 0.795 11.872 0.49 10.991 C 0.164 10.04 0 9.118 0 8.226 C 0 7.204 0.221 6.323 0.663 5.584 C 1.011 4.991 1.473 4.523 2.052 4.18 C 2.63 3.836 3.256 3.661 3.929 3.65 C 4.298 3.65 4.781 3.764 5.381 3.988 C 5.98 4.213 6.365 4.327 6.533 4.327 C 6.659 4.327 7.086 4.193 7.81 3.928 C 8.495 3.681 9.073 3.579 9.546 3.619 C 10.829 3.723 11.793 4.229 12.434 5.14 C 11.287 5.835 10.719 6.809 10.73 8.058 C 10.741 9.03 11.094 9.84 11.787 10.483 C 12.102 10.781 12.453 11.012 12.843 11.176 C 12.759 11.421 12.669 11.657 12.574 11.882 Z M 9.632 0.305 C 9.632 1.068 9.353 1.78 8.798 2.439 C 8.128 3.222 7.317 3.675 6.438 3.603 C 6.427 3.512 6.421 3.416 6.421 3.314 C 6.421 2.582 6.739 1.799 7.305 1.158 C 7.588 0.834 7.947 0.564 8.383 0.349 C 8.818 0.137 9.229 0.02 9.616 0 C 9.627 0.102 9.632 0.204 9.632 0.305 Z" fill="currentColor" fill-rule="nonzero"></path>
</svg>